<?xml version="1.0" encoding="UTF-8" standalone="no"?>
<!-- Created with Inkscape (http://www.inkscape.org/) -->

<svg
   width="84.130066mm"
   height="83.293266mm"
   viewBox="0 0 84.130066 83.293266"
   version="1.1"
   id="svg5"
   inkscape:version="1.2.2 (732a01da63, 2022-12-09)"
   sodipodi:docname="logo.svg"
   xmlns:inkscape="http://www.inkscape.org/namespaces/inkscape"
   xmlns:sodipodi="http://sodipodi.sourceforge.net/DTD/sodipodi-0.dtd"
   xmlns="http://www.w3.org/2000/svg"
   xmlns:svg="http://www.w3.org/2000/svg">
  <sodipodi:namedview
     id="namedview7"
     pagecolor="#505050"
     bordercolor="#eeeeee"
     borderopacity="1"
     inkscape:showpageshadow="0"
     inkscape:pageopacity="0"
     inkscape:pagecheckerboard="0"
     inkscape:deskcolor="#505050"
     inkscape:document-units="mm"
     showgrid="false"
     inkscape:zoom="0.8525463"
     inkscape:cx="-123.16047"
     inkscape:cy="57.474885"
     inkscape:window-width="1920"
     inkscape:window-height="1137"
     inkscape:window-x="-8"
     inkscape:window-y="-8"
     inkscape:window-maximized="1"
     inkscape:current-layer="layer1" />
  <defs
     id="defs2" />
  <g
     inkscape:label="Layer 1"
     inkscape:groupmode="layer"
     id="layer1"
     transform="translate(-56.197609,-115.9577)">
    <ellipse
       style="display:inline;opacity:1;fill:#5a2ca0;stroke-width:0.201856;paint-order:markers stroke fill;stop-color:#000000"
       id="path234"
       cx="98.153496"
       cy="157.4422"
       rx="28.619936"
       ry="28.344608" />
    <g
       transform="matrix(0.00858323,0,0,-0.00858323,42.033969,215.96267)"
       fill="#000000"
       stroke="none"
       id="g466"
       style="fill:#7137c8" />
    <path
       d="m 94.6417,116.12909 c -0.09145,0.0735 -0.233103,0.22509 -0.300607,0.34714 -0.06746,0.12203 -0.609611,1.92449 -1.203679,4.01344 -0.595471,2.08253 -1.141502,3.95968 -1.216575,4.17063 -0.222977,0.61221 -0.198722,0.60025 -1.972099,1.05874 l -1.568237,0.41393 -0.375937,-0.093 c -0.37594,-0.093 -0.425529,-0.13593 -3.430403,-2.94118 -1.681294,-1.56184 -3.136652,-2.91762 -3.243634,-3.00853 -0.24015,-0.2097 -0.601878,-0.29906 -0.935251,-0.22675 -0.275674,0.0598 -7.003675,4.04307 -7.216159,4.2704 -0.314824,0.34351 -0.32501,0.66792 -0.05147,1.58863 0.565472,1.86429 1.695567,5.61989 1.950186,6.4843 l 0.289687,0.9642 -0.106656,0.40576 c -0.103028,0.39153 -0.154623,0.46314 -1.222065,1.60758 -0.615982,0.65719 -1.212419,1.24974 -1.325886,1.31463 -0.492332,0.26788 -0.560614,0.26255 -5.060585,-0.55366 -4.618695,-0.83745 -4.487151,-0.81899 -4.938541,-0.48615 -0.218589,0.16824 -3.697089,7.12521 -3.726506,7.4538 -0.01096,0.19704 0.01546,0.31885 0.107074,0.49365 0.08605,0.14915 1.284571,1.21829 3.344818,2.97986 2.787115,2.3893 3.231192,2.79643 3.355095,3.0582 0.180141,0.39725 0.180141,0.39725 -0.222215,2.56543 -0.352079,1.93577 -0.464533,2.22195 -0.925657,2.50992 -0.136325,0.0833 -1.985388,0.87369 -4.123795,1.75369 -4.067183,1.67427 -4.085025,1.68485 -4.283675,2.13071 -0.236034,0.52107 0.602844,8.38085 0.906871,8.48272 0.04402,0.0173 2.031388,0.29778 4.411988,0.62721 2.3806,0.32943 4.434003,0.63585 4.556897,0.67633 0.475968,0.15184 0.631927,0.40665 1.478256,2.45168 0.433748,1.04035 0.815123,2.02494 0.852668,2.19803 0.04311,0.19875 0.03269,0.42924 -0.02091,0.61539 -0.05584,0.20677 -0.82451,1.36697 -2.488138,3.75503 -1.326717,1.8988 -2.44373,3.55745 -2.492002,3.67532 -0.05414,0.15271 -0.05645,0.32774 -0.0028,0.54433 0.06397,0.29491 0.29516,0.5871 2.391276,3.13299 1.280796,1.54131 2.421777,2.8713 2.540191,2.95302 0.110611,0.0767 0.334387,0.14899 0.490183,0.15547 0.265334,0.0163 0.560534,-0.10817 4.096761,-1.75453 3.986999,-1.85826 4.13028,-1.90948 4.645563,-1.79302 0.27645,0.0676 3.925045,2.49826 4.174082,2.77988 0.340957,0.39592 0.355946,0.52692 0.255469,3.22035 -0.231442,6.20567 -0.227195,6.07051 -0.08406,6.3281 0.06906,0.1327 0.211961,0.29637 0.308363,0.36944 0.09639,0.073 1.758659,0.61872 3.693195,1.21272 3.18633,0.98032 3.549448,1.07609 3.8123,1.01908 0.173097,-0.0375 0.367121,-0.13335 0.462206,-0.22108 0.0937,-0.0941 1.165825,-1.74308 2.390275,-3.6801 1.224446,-1.93704 2.314424,-3.59654 2.43515,-3.68985 0.413772,-0.35154 0.544774,-0.36653 3.005232,-0.34977 1.270084,0.006 2.391326,0.0385 2.487186,0.0781 0.50493,0.19254 0.54309,0.24468 2.7986,4.05154 2.12713,3.58633 2.18784,3.68056 2.47874,3.84569 0.16885,0.0976 0.40545,0.16715 0.55205,0.16219 0.60704,-0.0175 4.19202,-1.0368 6.44885,-1.83509 1.0222,-0.36268 1.22294,-0.52034 1.29817,-1.0401 0.0243,-0.16637 0.0331,-2.16864 0.0155,-4.44712 -0.0132,-2.72245 0.002,-4.22944 0.0514,-4.37435 0.1638,-0.45171 0.32887,-0.5882 2.12292,-1.756 1.93402,-1.26529 2.19076,-1.3814 2.713,-1.23287 0.1293,0.0391 1.85552,0.87963 3.83001,1.87445 1.98089,0.99341 3.6943,1.83676 3.8172,1.87723 0.15912,0.0528 0.31213,0.0464 0.55156,-0.0257 0.32279,-0.0902 0.38221,-0.15667 1.92041,-1.94702 3.12437,-3.63794 3.41718,-3.9901 3.50144,-4.18962 0.051,-0.105 0.0743,-0.33833 0.0496,-0.5142 -0.0291,-0.28905 -0.238,-0.63307 -2.37029,-3.90279 -1.28785,-1.97611 -2.37708,-3.68651 -2.41633,-3.80553 -0.16006,-0.42846 -0.0724,-0.73612 0.64744,-2.36903 0.38865,-0.86968 0.75274,-1.66691 0.81299,-1.76053 0.17015,-0.29869 0.51865,-0.54881 0.87906,-0.62027 0.1731,-0.0375 2.13171,-0.261 4.34366,-0.49241 l 4.01533,-0.4279 0.24926,-0.1816 c 0.13216,-0.10245 0.28161,-0.24905 0.33042,-0.33346 0.0675,-0.12204 1.00701,-6.62228 1.13272,-7.83768 0.0506,-0.44731 -0.11556,-0.78045 -0.51485,-1.0429 -0.15743,-0.10682 -2.00739,-0.96082 -4.11094,-1.90078 -3.77548,-1.6849 -3.8209,-1.70861 -4.05765,-2.02645 l -0.23676,-0.31785 -0.22206,-1.39505 c -0.28817,-1.82374 -0.29343,-1.90986 -0.13132,-2.30751 0.13254,-0.3174 0.26191,-0.43272 3.46133,-3.01293 1.83405,-1.47855 3.36673,-2.73732 3.41469,-2.79471 0.11462,-0.15241 0.22799,-0.62003 0.19045,-0.79314 -0.0584,-0.26925 -3.35277,-7.44204 -3.49845,-7.61853 -0.0813,-0.0965 -0.26217,-0.21835 -0.41628,-0.27891 -0.3068,-0.11469 -0.0265,-0.15534 -6.61811,0.83807 -2.52864,0.38065 -2.5763,0.37757 -3.03243,0.10059 -0.33268,-0.20306 -1.95807,-2.12609 -2.07803,-2.46255 -0.0631,-0.16755 -0.0834,-0.38466 -0.0655,-0.54965 0.0207,-0.15218 0.63672,-2.07806 1.36797,-4.27732 1.27884,-3.82164 1.33244,-4.00779 1.2657,-4.31553 -0.0444,-0.17161 -0.1283,-0.37493 -0.19262,-0.45495 -0.11812,-0.14219 -6.67862,-4.48535 -7.0378,-4.65582 -0.11285,-0.056 -0.3177,-0.072 -0.54487,-0.0362 l -0.37098,0.0537 -3.18056,2.79093 c -1.74823,1.53376 -3.28762,2.85441 -3.41753,2.93629 -0.40899,0.24982 -0.71833,0.21628 -2.05541,-0.19186 -1.35129,-0.41173 -1.50036,-0.4801 -1.76555,-0.8052 -0.23621,-0.2844 -0.21172,-0.20244 -1.35845,-4.74653 -0.94865,-3.75469 -0.98426,-3.88793 -1.18649,-4.13942 -0.3415,-0.42937 0.15709,-0.38984 -6.720042,-0.52934 -1.158321,-0.0173 -2.173671,-0.0253 -2.250592,-0.009 -0.07543,0.0235 -0.214663,0.0935 -0.313919,0.16203 z m 1.216755,17.52456 c 1.813094,-0.15162 3.345725,-0.1417 4.974985,0.0352 8.64994,0.91625 16.33754,6.52529 19.80742,14.44537 0.75896,1.73506 1.03142,2.58888 1.48892,4.69811 0.43791,1.98592 0.51115,2.4802 0.59451,4.13356 0.39466,7.76147 -3.06744,15.41299 -9.18659,20.28452 -2.31835,1.84538 -4.4162,3.00523 -7.46442,4.11615 -0.95169,0.34739 -4.5346,1.09768 -5.64865,1.19165 -5.768708,0.45244 -11.182313,-0.92413 -15.844261,-4.03449 -6.663867,-4.44828 -10.673651,-11.70084 -10.935771,-19.77968 -0.172275,-5.31261 1.545472,-10.79351 4.743209,-15.14549 3.157574,-4.28956 7.477366,-7.36787 12.612261,-8.97838 0.948603,-0.29969 3.889542,-0.88397 4.858391,-0.96651 z"
       id="path464"
       style="display:inline;fill:#7137c8;stroke-width:0.00656009" />
    <text
       xml:space="preserve"
       style="font-style:normal;font-variant:normal;font-weight:normal;font-stretch:normal;font-size:69.5423px;line-height:1.25;font-family:'Cascadia Code';-inkscape-font-specification:'Cascadia Code';letter-spacing:0px;word-spacing:0px;display:none;fill:#ffffff;fill-opacity:1;stroke:none;stroke-width:1.73856"
       x="78.84127"
       y="173.89519"
       id="text290"><tspan
         sodipodi:role="line"
         id="tspan288"
         style="font-style:normal;font-variant:normal;font-weight:normal;font-stretch:normal;font-family:'Techna Sans';-inkscape-font-specification:'Techna Sans';fill:#ffffff;stroke-width:1.73856"
         x="78.84127"
         y="173.89519">µ</tspan></text>
    <g
       aria-label="µ"
       id="text622"
       style="font-size:64.8964px;line-height:1.25;font-family:'Cascadia Code';-inkscape-font-specification:'Cascadia Code';letter-spacing:0px;word-spacing:0px;display:inline;fill:#ffffff;stroke-width:1.62241" />
    <path
       d="m 92.460464,160.22133 v -19.53382 h -8.371635 v 43.35079 h 8.371635 v -11.16218 c 1.038343,0.58407 2.271374,0.90855 3.699095,0.90855 3.958681,0 6.943911,-2.14158 8.306741,-5.71088 l 0.0649,5.25661 h 7.98226 v -32.64289 h -8.37163 v 18.43058 c 0,4.60764 -2.27138,7.1386 -6.165162,7.1386 -3.763991,0 -5.516194,-2.40117 -5.516194,-6.03536 z"
       style="font-size:64.8964px;line-height:1.25;font-family:'Techna Sans';-inkscape-font-specification:'Techna Sans';letter-spacing:0px;word-spacing:0px;display:inline;fill:#ffffff;stroke-width:1.62241"
       id="path685" />
  </g>
</svg>
