<?xml version="1.0" encoding="UTF-8" standalone="no"?>
<!-- Created with Inkscape (http://www.inkscape.org/) -->

<svg
   width="84.133247mm"
   height="83.21611mm"
   viewBox="0 0 84.133247 83.21611"
   version="1.1"
   id="svg5"
   inkscape:version="1.2.2 (732a01da63, 2022-12-09)"
   sodipodi:docname="logo.svg"
   xmlns:inkscape="http://www.inkscape.org/namespaces/inkscape"
   xmlns:sodipodi="http://sodipodi.sourceforge.net/DTD/sodipodi-0.dtd"
   xmlns="http://www.w3.org/2000/svg"
   xmlns:svg="http://www.w3.org/2000/svg">
  <sodipodi:namedview
     id="namedview7"
     pagecolor="#505050"
     bordercolor="#eeeeee"
     borderopacity="1"
     inkscape:showpageshadow="0"
     inkscape:pageopacity="0"
     inkscape:pagecheckerboard="0"
     inkscape:deskcolor="#505050"
     inkscape:document-units="mm"
     showgrid="false"
     inkscape:zoom="1.7050926"
     inkscape:cx="225.79419"
     inkscape:cy="87.385283"
     inkscape:window-width="1920"
     inkscape:window-height="1137"
     inkscape:window-x="-8"
     inkscape:window-y="-8"
     inkscape:window-maximized="1"
     inkscape:current-layer="layer1" />
  <defs
     id="defs2" />
  <g
     inkscape:label="Layer 1"
     inkscape:groupmode="layer"
     id="layer1"
     transform="translate(-56.227067,-116.00189)">
    <ellipse
       style="display:inline;opacity:1;fill:#5a2ca0;stroke-width:0.201856;paint-order:markers stroke fill;stop-color:#000000"
       id="path234"
       cx="98.153496"
       cy="157.4422"
       rx="28.619936"
       ry="28.344608" />
    <g
       transform="matrix(0.00858323,0,0,-0.00858323,42.033969,215.96267)"
       fill="#000000"
       stroke="none"
       id="g466"
       style="fill:#7137c8" />
    <path
       d="m 93.882752,116.20236 c -0.09009,0.0752 -0.228942,0.22932 -0.2942,0.35258 -0.06521,0.12325 -0.574264,1.93534 -1.129977,4.03482 -0.557233,2.09308 -1.068795,3.97992 -1.139992,4.19221 -0.211728,0.61619 -0.187696,0.60378 -1.952379,1.09467 l -1.560394,0.44258 -0.377577,-0.0861 c -0.37758,-0.0861 -0.427947,-0.12811 -3.483691,-2.87786 -1.709614,-1.53079 -3.189557,-2.85969 -3.298186,-2.94862 -0.24395,-0.20527 -0.607254,-0.28799 -0.939247,-0.20959 -0.274533,0.0648 -6.928458,4.17066 -7.136743,4.40184 -0.30848,0.34922 -0.312724,0.67376 -0.02237,1.58931 0.599519,1.85362 1.798202,5.58789 2.068609,6.44749 l 0.307296,0.95874 -0.09921,0.40764 c -0.09584,0.39335 -0.146115,0.4659 -1.19242,1.62969 -0.603843,0.66836 -1.189328,1.27174 -1.301588,1.33869 -0.487344,0.27685 -0.555712,0.27278 -5.069876,-0.46089 -4.633257,-0.75272 -4.501397,-0.73667 -4.946616,-0.39562 -0.215471,0.17221 -3.565981,7.19172 -3.589376,7.52079 -0.0073,0.19721 0.0213,0.31852 0.116097,0.49161 0.08877,0.14755 1.306667,1.19456 3.398828,2.9181 2.830404,2.33786 3.281863,2.73679 3.410539,2.99625 0.187386,0.39388 0.187386,0.39388 -0.175196,2.56907 -0.316569,1.94189 -0.423763,2.23008 -0.879536,2.52645 -0.134777,0.0858 -1.969055,0.9099 -4.090987,1.82891 -4.03584,1.74848 -4.053485,1.75938 -4.243936,2.20881 -0.226452,0.5253 0.756225,8.3684 1.062067,8.46469 0.04433,0.0165 2.0365,0.26052 4.422734,0.5463 2.386234,0.28578 4.444904,0.55454 4.568519,0.59277 0.478669,0.14309 0.639268,0.395 1.522907,2.42419 0.452727,1.03223 0.85207,2.00967 0.892778,2.18205 0.04674,0.19793 0.04055,0.42857 -0.0096,0.61567 -0.05204,0.20776 -0.799338,1.38184 -2.418953,3.79996 -1.291721,1.92278 -2.378171,3.60161 -2.424277,3.72035 -0.05133,0.15367 -0.05044,0.32871 0.0072,0.54429 0.06936,0.29368 0.305863,0.58159 2.448251,3.08867 1.308808,1.51759 2.473955,2.82646 2.593845,2.906 0.111997,0.0747 0.33706,0.14284 0.492948,0.14647 0.265588,0.0114 0.558459,-0.11842 4.063943,-1.82926 3.952299,-1.93097 4.094618,-1.9848 4.611947,-1.8778 0.277642,0.0625 3.970139,2.42596 4.224291,2.70297 0.348151,0.38961 0.365536,0.52032 0.314402,3.21514 -0.117755,6.20886 -0.115984,6.07365 0.03184,6.32857 0.07148,0.13142 0.217353,0.29244 0.315077,0.36373 0.09771,0.0712 1.769695,0.58641 3.714785,1.14489 3.203748,0.9218 3.568559,1.0109 3.830323,0.94909 0.172381,-0.0407 0.364618,-0.14005 0.45808,-0.22951 0.09196,-0.0958 1.133708,-1.76414 2.322479,-3.72326 1.188766,-1.95914 2.24817,-3.63832 2.367167,-3.73382 0.407265,-0.35906 0.537971,-0.37645 2.998323,-0.40475 1.269981,-0.0173 2.39163,-0.005 2.4882,0.0325 0.50837,0.18326 0.54748,0.23469 2.87233,3.99961 2.19245,3.54677 2.25488,3.63987 2.54875,3.79965 0.17061,0.0945 0.40844,0.15969 0.55493,0.15205 0.60662,-0.0286 4.17233,-1.1134 6.41416,-1.95288 1.01539,-0.38134 1.21321,-0.54265 1.27891,-1.0637 0.0212,-0.16679 -0.007,-2.16889 -0.066,-4.44666 -0.063,-2.72175 -0.0755,-4.22877 -0.0287,-4.37456 0.1555,-0.45463 0.31805,-0.59412 2.09041,-1.79458 1.91052,-1.3005 2.16509,-1.42129 2.68996,-1.28235 0.13,0.0367 1.87132,0.8455 3.8637,1.80399 1.99875,0.95697 3.72732,1.7688 3.85094,1.80701 0.16006,0.0499 0.31293,0.0407 0.551,-0.0358 0.32108,-0.0961 0.37927,-0.16365 1.88443,-1.98187 3.05722,-3.69454 3.34353,-4.05201 3.42412,-4.25304 0.0491,-0.10591 0.0681,-0.33963 0.0402,-0.51502 -0.0344,-0.28847 -0.24956,-0.6286 -2.44137,-3.85873 -1.32382,-1.95219 -2.44419,-3.64236 -2.48562,-3.76064 -0.16788,-0.42545 -0.0859,-0.73467 0.60395,-2.38049 0.37266,-0.87665 0.72209,-1.68041 0.78061,-1.77512 0.16465,-0.30176 0.50852,-0.55822 0.86756,-0.63626 0.17238,-0.0407 2.12657,-0.3 4.33391,-0.57188 l 4.00682,-0.50136 0.24589,-0.18614 c 0.13026,-0.10485 0.277,-0.25416 0.32426,-0.33945 0.0652,-0.12326 0.88556,-6.63961 0.989,-7.85711 0.0424,-0.44816 -0.12984,-0.7782 -0.53387,-1.0333 -0.15936,-0.10392 -2.02465,-0.92389 -4.14506,-1.82517 -3.8057,-1.61548 -3.85155,-1.63835 -4.09408,-1.9518 l -0.24254,-0.31346 -0.24757,-1.39075 c -0.32152,-1.81816 -0.32836,-1.90417 -0.17356,-2.30472 0.12671,-0.31978 0.25394,-0.43745 3.40558,-3.07582 1.80666,-1.51189 3.31603,-2.79851 3.36293,-2.85677 0.11181,-0.15449 0.2166,-0.6241 0.17589,-0.7965 -0.0633,-0.26813 -3.48849,-7.37939 -3.63738,-7.55318 -0.0831,-0.095 -0.26613,-0.21351 -0.42132,-0.27124 -0.30885,-0.10905 -0.0293,-0.15483 -6.60165,0.95913 -2.52125,0.42689 -2.56895,0.42469 -3.03008,0.15611 -0.33634,-0.19694 -1.99668,-2.08988 -2.12278,-2.42408 -0.0662,-0.16637 -0.0904,-0.38307 -0.0755,-0.54836 0.0179,-0.15254 0.59855,-2.08937 1.2894,-4.30166 1.20864,-3.84442 1.25882,-4.03152 1.18646,-4.33798 -0.0475,-0.17077 -0.13515,-0.37252 -0.20092,-0.45135 -0.1207,-0.14 -6.75964,-4.36229 -7.12188,-4.52615 -0.11386,-0.0539 -0.31897,-0.0662 -0.54545,-0.0262 l -0.36993,0.0605 -3.12891,2.84871 c -1.71985,1.56552 -3.2348,2.91414 -3.36319,2.99838 -0.40434,0.25727 -0.71425,0.2294 -2.05858,-0.15418 -1.3586,-0.38692 -1.5089,-0.45255 -1.78,-0.77274 -0.24138,-0.28002 -0.21539,-0.19852 -1.44514,-4.72085 -1.01726,-3.73669 -1.0553,-3.86926 -1.2621,-4.117 -0.34931,-0.42304 0.14992,-0.39265 -6.728614,-0.40618 -1.158443,0.004 -2.17377,0.0145 -2.250379,0.0322 -0.07499,0.0249 -0.212915,0.0974 -0.310899,0.16776 z m 1.537486,17.49934 c 1.810013,-0.1848 3.342569,-0.20295 4.974792,-0.0559 8.66527,0.75769 16.4543,6.225 20.06865,14.08021 0.7906,1.72087 1.07865,2.56955 1.57471,4.67005 0.4742,1.97757 0.55648,2.47042 0.67011,4.12198 0.53673,7.75294 -2.78466,15.46658 -8.81357,20.44936 -2.28417,1.88752 -4.36043,3.0856 -7.38779,4.25216 -0.94517,0.36476 -4.51374,1.18054 -5.62588,1.29489 -5.759455,0.55801 -11.197362,-0.71919 -15.91549,-3.74365 -6.744213,-4.32549 -10.886144,-11.5034 -11.296171,-19.57609 -0.269539,-5.30856 1.347546,-10.82 4.465047,-15.22981 3.078487,-4.34667 7.34118,-7.50357 12.44572,-9.20785 0.942956,-0.31701 3.872701,-0.95506 4.839876,-1.05532 z"
       id="path464"
       style="display:inline;fill:#7137c8;stroke-width:0.00656009" />
    <text
       xml:space="preserve"
       style="font-style:normal;font-variant:normal;font-weight:normal;font-stretch:normal;font-size:69.5423px;line-height:1.25;font-family:'Cascadia Code';-inkscape-font-specification:'Cascadia Code';letter-spacing:0px;word-spacing:0px;display:none;fill:#ffffff;fill-opacity:1;stroke:none;stroke-width:1.73856"
       x="78.84127"
       y="173.89519"
       id="text290"><tspan
         sodipodi:role="line"
         id="tspan288"
         style="font-style:normal;font-variant:normal;font-weight:normal;font-stretch:normal;font-family:'Techna Sans';-inkscape-font-specification:'Techna Sans';fill:#ffffff;stroke-width:1.73856"
         x="0"
         y="0">µ</tspan></text>
    <g
       aria-label="µ"
       id="text622"
       style="font-size:64.8964px;line-height:1.25;font-family:'Cascadia Code';-inkscape-font-specification:'Cascadia Code';letter-spacing:0px;word-spacing:0px;display:inline;fill:#ffffff;stroke-width:1.62241" />
    <path
       d="m 92.460464,160.22133 v -19.53382 h -8.371635 v 43.35079 h 8.371635 v -11.16218 c 1.038343,0.58407 2.271374,0.90855 3.699095,0.90855 3.958681,0 6.943911,-2.14158 8.306741,-5.71088 l 0.0649,5.25661 h 7.98226 v -32.64289 h -8.37163 v 18.43058 c 0,4.60764 -2.27138,7.1386 -6.165162,7.1386 -3.763991,0 -5.516194,-2.40117 -5.516194,-6.03536 z"
       style="font-size:64.8964px;line-height:1.25;font-family:'Techna Sans';-inkscape-font-specification:'Techna Sans';letter-spacing:0px;word-spacing:0px;display:inline;fill:#ffffff;stroke-width:1.62241"
       id="path685" />
  </g>
</svg>
